<svg xmlns="http://www.w3.org/2000/svg" width="720" height="1000" viewBox="0 0 720 1000" role="img" aria-labelledby="title desc">
  <title id="title">Umbreon VMAX PSA 10 sample slab</title>
  <desc id="desc">Sample slab image for a moon themed graded card.</desc>
  <defs><linearGradient id="slab" x1="0" x2="1" y1="0" y2="1"><stop offset="0" stop-color="#f8fafc"/><stop offset=".5" stop-color="#64748b"/><stop offset="1" stop-color="#e5e7eb"/></linearGradient><radialGradient id="art" cx=".52" cy=".28" r=".78"><stop offset="0" stop-color="#e0e7ff"/><stop offset=".35" stop-color="#6366f1"/><stop offset="1" stop-color="#020617"/></radialGradient><filter id="shadow"><feDropShadow dx="0" dy="18" stdDeviation="16" flood-opacity=".5"/></filter></defs>
  <rect width="720" height="1000" rx="36" fill="#050816"/><rect x="24" y="18" width="672" height="964" rx="32" fill="url(#slab)" opacity=".72"/><rect x="58" y="54" width="604" height="892" rx="20" fill="#111827" opacity=".74"/><rect x="76" y="72" width="568" height="150" rx="8" fill="#f8fafc"/><rect x="76" y="72" width="568" height="22" fill="#6366f1"/><rect x="76" y="200" width="568" height="22" fill="#6366f1"/>
  <text x="103" y="118" font-family="Arial Black, Arial, sans-serif" font-size="29" fill="#334155">2021 POKEMON S6a JP</text><text x="103" y="152" font-family="Arial Black, Arial, sans-serif" font-size="29" fill="#111827">UMBREON VMAX</text><text x="103" y="185" font-family="Arial Black, Arial, sans-serif" font-size="25" fill="#334155">ALT ART SECRET</text><text x="560" y="155" text-anchor="middle" font-family="Arial Black, Arial, sans-serif" font-size="26" fill="#111827">GEM MT</text><text x="560" y="190" text-anchor="middle" font-family="Arial Black, Arial, sans-serif" font-size="36" fill="#111827">10</text><text x="356" y="205" text-anchor="middle" font-family="Arial Black, Arial, sans-serif" font-size="42" fill="#1d4ed8">PSA</text>
  <rect x="108" y="252" width="504" height="636" rx="28" fill="#0f172a" filter="url(#shadow)"/><rect x="126" y="270" width="468" height="600" rx="24" fill="url(#art)"/><circle cx="470" cy="355" r="68" fill="#fefce8" opacity=".9"/><path d="M245 678c30-125 77-220 138-276 20 85 77 132 161 154-75 50-139 83-206 118 55 3 94 22 126 61-91 34-160 15-219-57z" fill="#020617" opacity=".88"/><path d="M310 616c18-63 47-114 86-149 14 47 49 73 102 90-48 27-87 50-126 72 34 4 58 17 77 40-59 16-102 0-139-53z" fill="#c4b5fd" opacity=".8"/>
  <text x="360" y="744" text-anchor="middle" font-family="Arial Black, Arial, sans-serif" font-size="27" fill="#312e81">Umbreon VMAX 245/184</text><text x="360" y="779" text-anchor="middle" font-family="Arial, sans-serif" font-size="24" fill="#111827">Eevee Heroes / Japanese</text><text x="360" y="813" text-anchor="middle" font-family="Arial Black, Arial, sans-serif" font-size="28" fill="#111827">$950</text><rect x="170" y="905" width="380" height="26" rx="13" fill="#111827" opacity=".55"/><text x="360" y="925" text-anchor="middle" font-family="Arial, sans-serif" font-size="17" fill="#e5e7eb">Sample seed / Moon Vault</text>
</svg>
